<?xml version="1.0" standalone="no"?><!-- Generator: Gravit.io --><svg xmlns="http://www.w3.org/2000/svg" xmlns:xlink="http://www.w3.org/1999/xlink" style="isolation:isolate" viewBox="0 0 512 512" width="512" height="512"><defs><clipPath id="_clipPath_MN5qzpnqbvblX6gpKG825jMnEXNlCR64"><rect width="512" height="512"/></clipPath></defs><g clip-path="url(#_clipPath_MN5qzpnqbvblX6gpKG825jMnEXNlCR64)"><rect x="0" y="0" width="512" height="512" transform="matrix(1,0,0,1,0,0)" fill="rgb(136,170,244)"/><path d=" M 259.343 133.494 C 256.275 132.471 253.207 131.505 250.138 130.596 C 250.65 128.494 251.104 126.391 251.559 124.289 C 258.548 90.425 253.945 63.209 238.434 54.232 C 223.49 45.652 199.115 54.572 174.456 76.05 C 172.013 78.152 169.626 80.368 167.353 82.584 C 165.819 81.107 164.228 79.63 162.637 78.209 C 136.785 55.254 110.876 45.595 95.364 54.629 C 80.477 63.266 76.046 88.891 82.296 120.937 C 82.921 124.119 83.602 127.244 84.398 130.426 C 80.762 131.448 77.182 132.585 73.83 133.778 C 43.488 144.289 21.727 160.88 21.727 178.04 C 21.727 195.767 44.909 213.552 76.443 224.347 C 79 225.199 81.557 226.052 84.171 226.79 C 83.318 230.199 82.58 233.552 81.898 237.018 C 75.932 268.552 80.591 293.552 95.478 302.132 C 110.819 310.996 136.614 301.905 161.728 279.916 C 163.717 278.154 165.706 276.336 167.694 274.404 C 170.194 276.848 172.808 279.177 175.422 281.45 C 199.74 302.359 223.774 310.825 238.604 302.246 C 253.945 293.382 258.945 266.507 252.468 233.779 C 251.957 231.279 251.388 228.722 250.763 226.108 C 252.582 225.597 254.343 225.029 256.104 224.461 C 288.889 213.608 312.639 196.051 312.639 178.04 C 312.639 160.824 290.252 144.119 259.343 133.494 L 259.343 133.494 Z  M 182.467 85.255 C 203.604 66.845 223.32 59.629 232.297 64.8 C 241.9 70.311 245.593 92.584 239.57 121.846 C 239.172 123.778 238.775 125.653 238.263 127.528 C 225.649 124.687 212.865 122.641 200.024 121.505 C 192.638 110.937 184.569 100.823 175.819 91.334 C 178.035 89.232 180.194 87.243 182.467 85.255 L 182.467 85.255 Z  M 108.603 192.699 C 111.216 197.699 113.887 202.642 116.728 207.529 C 119.626 212.472 122.58 217.415 125.705 222.245 C 116.841 221.279 108.035 219.858 99.341 217.983 C 101.841 209.801 104.966 201.335 108.603 192.699 L 108.603 192.699 Z  M 108.603 163.949 C 105.023 155.483 102.012 147.187 99.512 139.176 C 107.694 137.357 116.387 135.88 125.421 134.744 C 122.41 139.46 119.455 144.289 116.671 149.176 C 113.887 154.005 111.16 158.949 108.603 163.949 Z  M 115.08 178.324 C 118.83 170.483 122.921 162.812 127.239 155.255 C 131.558 147.699 136.217 140.369 141.103 133.153 C 149.626 132.528 158.319 132.187 167.183 132.187 C 176.047 132.187 184.797 132.528 193.263 133.153 C 198.092 140.312 202.695 147.642 207.07 155.142 C 211.445 162.642 215.536 170.312 219.399 178.097 C 215.593 185.938 211.502 193.665 207.127 201.279 C 202.808 208.836 198.206 216.165 193.376 223.438 C 184.91 224.063 176.103 224.347 167.183 224.347 C 158.262 224.347 149.626 224.063 141.274 223.552 C 136.33 216.336 131.671 208.949 127.296 201.392 C 122.921 193.835 118.887 186.165 115.08 178.324 Z  M 217.695 207.415 C 220.593 202.415 223.32 197.358 225.99 192.244 C 229.627 200.483 232.809 208.836 235.593 217.415 C 226.786 219.404 217.865 220.938 208.888 221.961 C 211.956 217.188 214.854 212.301 217.695 207.415 Z  M 225.877 163.949 C 223.206 158.949 220.479 153.949 217.638 149.062 C 214.854 144.233 211.956 139.46 208.945 134.744 C 218.093 135.88 226.843 137.414 235.025 139.289 C 232.411 147.699 229.343 155.88 225.877 163.949 L 225.877 163.949 Z  M 167.297 100.028 C 173.263 106.505 178.888 113.323 184.115 120.369 C 172.865 119.857 161.558 119.857 150.308 120.369 C 155.876 113.039 161.615 106.221 167.297 100.028 Z  M 101.387 65.198 C 110.932 59.629 132.126 67.584 154.456 87.357 C 155.876 88.607 157.296 89.971 158.774 91.334 C 149.967 100.823 141.842 110.937 134.398 121.505 C 121.557 122.641 108.83 124.63 96.216 127.414 C 95.478 124.516 94.853 121.562 94.228 118.607 C 88.887 91.107 92.409 70.368 101.387 65.198 L 101.387 65.198 Z  M 87.466 214.972 C 85.08 214.29 82.75 213.552 80.421 212.756 C 68.318 208.949 54.568 202.926 44.625 195.029 C 38.886 191.051 35.022 184.915 33.943 178.04 C 33.943 167.642 51.898 154.346 77.807 145.312 C 81.046 144.176 84.341 143.153 87.637 142.187 C 91.5 154.517 96.159 166.619 101.557 178.324 C 96.103 190.199 91.387 202.472 87.466 214.972 L 87.466 214.972 Z  M 153.717 270.654 C 144.342 279.234 133.489 286.052 121.671 290.711 C 115.364 293.723 108.091 294.007 101.614 291.45 C 92.58 286.223 88.83 266.166 93.943 239.177 C 94.569 235.995 95.25 232.813 96.046 229.688 C 108.773 232.415 121.614 234.29 134.626 235.256 C 142.126 245.881 150.365 256.052 159.171 265.598 C 157.353 267.359 155.535 269.063 153.717 270.654 Z  M 167.637 256.847 C 161.842 250.597 156.046 243.665 150.421 236.222 C 155.876 236.449 161.501 236.563 167.183 236.563 C 173.035 236.563 178.774 236.449 184.456 236.165 C 179.229 243.381 173.603 250.256 167.637 256.847 L 167.637 256.847 Z  M 241.9 273.893 C 241.388 280.825 237.979 287.302 232.525 291.677 C 223.49 296.905 204.229 290.086 183.433 272.245 C 181.047 270.2 178.66 267.984 176.217 265.711 C 184.91 256.109 192.922 245.938 200.195 235.256 C 213.206 234.177 226.161 232.188 238.945 229.29 C 239.513 231.62 240.025 233.949 240.479 236.222 C 243.263 248.495 243.718 261.279 241.9 273.893 L 241.9 273.893 Z  M 252.241 212.813 C 250.65 213.324 249.059 213.836 247.411 214.29 C 243.434 201.904 238.547 189.801 232.922 178.04 C 238.377 166.449 242.979 154.517 246.843 142.301 C 249.797 143.153 252.638 144.062 255.366 144.971 C 281.843 154.062 300.423 167.585 300.423 177.926 C 300.423 189.063 280.593 203.438 252.241 212.813 Z  M 167.183 152.244 C 181.558 152.244 193.206 163.892 193.206 178.267 C 193.206 192.642 181.558 204.29 167.183 204.29 C 152.808 204.29 141.16 192.642 141.16 178.267 C 141.16 163.892 152.808 152.244 167.183 152.244 Z " fill="rgb(255,255,255)"/><path d=" M 340.217 358.112 L 383.932 358.112 L 362.075 305.562 L 340.217 358.112 Z  M 362.075 222.664 L 242.862 265.346 L 261.105 423.512 L 362.075 479.677 L 463.044 423.512 L 481.287 265.346 L 362.075 222.664 Z  M 436.769 418.751 L 408.888 418.751 L 393.857 381.231 L 330.407 381.231 L 315.376 418.751 L 287.438 418.751 L 362.075 251.061 L 436.769 418.751 Z " fill="rgb(255,255,255)"/></g></svg>