<?xml version="1.0" standalone="no"?><!-- Generator: Gravit.io --><svg xmlns="http://www.w3.org/2000/svg" xmlns:xlink="http://www.w3.org/1999/xlink" style="isolation:isolate" viewBox="0 0 512 512" width="512" height="512"><defs><clipPath id="_clipPath_0oYGqXqJsjFgqmU0q2uhBwwy261kVkch"><rect width="512" height="512"/></clipPath></defs><g clip-path="url(#_clipPath_0oYGqXqJsjFgqmU0q2uhBwwy261kVkch)"><clipPath id="_clipPath_Ok6nVhtrSkJtSZ2k2b9NyufGbL2lpVmp"><rect x="0" y="0" width="512" height="512" transform="matrix(1,0,0,1,0,0)" fill="rgb(255,255,255)"/></clipPath><g clip-path="url(#_clipPath_Ok6nVhtrSkJtSZ2k2b9NyufGbL2lpVmp)"><g id="Group"><rect x="0" y="0" width="512" height="512" transform="matrix(1,0,0,1,0,0)" fill="rgb(147,169,219)"/><path d=" M 438 238.387 C 438 138.398 357.313 74 256 74 C 155.416 74 74 155.4 74 256 C 74 356.584 155.4 438 256 438 C 294.841 438 332.822 425.466 363.949 402.539 C 367.987 399.565 368.663 393.788 365.487 389.908 L 354.314 376.26 C 351.339 372.625 346.059 372.002 342.258 374.762 C 317.313 392.879 286.997 402.774 256 402.774 C 175.069 402.774 109.226 336.931 109.226 256 C 109.226 175.069 175.069 109.226 256 109.226 C 336.336 109.226 402.774 156.942 402.774 238.387 C 402.774 284.699 371.601 310.519 341.848 310.519 C 327.534 310.519 327.073 301.258 329.838 287.429 L 350.842 178.408 C 351.888 172.976 347.727 167.935 342.195 167.935 L 313.445 167.935 C 309.223 167.937 305.596 170.934 304.797 175.08 C 303.989 179.28 303.578 181.197 303.124 185.349 C 294.374 171.003 276.794 162.549 255.274 162.549 C 202.73 162.549 156.194 208.408 156.194 274.736 C 156.194 319.619 180.321 349.671 224.576 349.671 C 246.447 349.671 269.594 337.318 283.101 318.673 C 286.143 341.31 304.014 346.568 326.673 346.568 C 399.448 346.567 438 299.875 438 238.387 Z  M 236.993 309.829 C 216.098 309.829 203.624 295.55 203.624 271.631 C 203.624 229.424 232.656 203.081 258.378 203.081 C 280.482 203.081 291.748 218.882 291.748 240.934 C 291.748 275.326 267.4 309.829 236.993 309.829 Z " fill="rgb(255,255,255)"/></g></g></g></svg>