<?xml version="1.0" standalone="no"?><!-- Generator: Gravit.io --><svg xmlns="http://www.w3.org/2000/svg" xmlns:xlink="http://www.w3.org/1999/xlink" style="isolation:isolate" viewBox="0 0 512 512" width="512" height="512"><defs><clipPath id="_clipPath_FNusTjwV3dF9OjWuAs0poB6bmFU64Ha1"><rect width="512" height="512"/></clipPath></defs><g clip-path="url(#_clipPath_FNusTjwV3dF9OjWuAs0poB6bmFU64Ha1)"><rect x="0" y="0" width="512" height="512" transform="matrix(1,0,0,1,0,0)" fill="rgb(96,176,213)"/><path d=" M 219.354 432.298 L 192.602 424.507 C 189.706 423.68 187.983 420.577 188.81 417.681 L 285.889 83.489 C 286.716 80.593 289.819 78.869 292.715 79.697 L 319.467 87.488 C 322.363 88.315 324.086 91.418 323.259 94.314 L 226.18 428.506 C 225.353 431.471 222.319 433.126 219.354 432.298 L 219.354 432.298 Z  M 161.989 348.802 L 180.743 328.807 C 182.88 326.532 182.674 322.946 180.398 320.878 L 107.244 255.997 L 180.398 191.117 C 182.742 189.049 182.88 185.463 180.743 183.188 L 161.989 163.193 C 159.921 160.987 156.404 160.849 154.198 162.917 L 59.187 251.998 C 56.843 254.205 56.843 257.859 59.187 260.065 L 154.198 349.078 C 156.404 351.146 159.852 351.008 161.989 348.802 Z  M 357.871 349.078 L 452.813 260.065 C 455.157 257.859 455.157 254.205 452.813 251.998 L 357.871 162.917 C 355.665 160.849 352.148 160.918 350.08 163.193 L 331.326 183.188 C 329.189 185.463 329.395 189.049 331.671 191.117 L 404.825 255.997 L 331.671 320.878 C 329.326 322.946 329.189 326.532 331.326 328.807 L 350.08 348.802 C 352.217 351.008 355.665 351.146 357.871 349.078 Z " fill="rgb(255,255,255)"/><path d=" M 333 451.087 L 333 467.337 L 269.125 467.337 L 269.125 453.9 L 292.063 430.712 L 292.063 430.712 Q 302.25 420.275 305.375 416.244 L 305.375 416.244 L 305.375 416.244 Q 308.5 412.212 309.875 408.775 L 309.875 408.775 L 309.875 408.775 Q 311.25 405.337 311.25 401.65 L 311.25 401.65 L 311.25 401.65 Q 311.25 396.15 308.219 393.462 L 308.219 393.462 L 308.219 393.462 Q 305.188 390.775 300.125 390.775 L 300.125 390.775 L 300.125 390.775 Q 294.813 390.775 289.813 393.212 L 289.813 393.212 L 289.813 393.212 Q 284.813 395.65 279.375 400.15 L 279.375 400.15 L 268.875 387.712 L 268.875 387.712 Q 275.625 381.962 280.063 379.587 L 280.063 379.587 L 280.063 379.587 Q 284.5 377.212 289.75 375.931 L 289.75 375.931 L 289.75 375.931 Q 295 374.65 301.5 374.65 L 301.5 374.65 L 301.5 374.65 Q 310.063 374.65 316.625 377.775 L 316.625 377.775 L 316.625 377.775 Q 323.188 380.9 326.813 386.525 L 326.813 386.525 L 326.813 386.525 Q 330.438 392.15 330.438 399.4 L 330.438 399.4 L 330.438 399.4 Q 330.438 405.712 328.219 411.244 L 328.219 411.244 L 328.219 411.244 Q 326 416.775 321.344 422.587 L 321.344 422.587 L 321.344 422.587 Q 316.688 428.4 304.938 439.15 L 304.938 439.15 L 293.188 450.212 L 293.188 451.087 L 333 451.087 L 333 451.087 Z  M 358.063 375.962 L 377 413.587 L 396.063 375.962 L 416.938 375.962 L 386.625 431.775 L 386.625 467.337 L 367.375 467.337 L 367.375 432.4 L 337.063 375.962 L 358.063 375.962 L 358.063 375.962 Z  M 446.625 453.15 L 446.625 429.087 L 422.438 429.087 L 422.438 415.4 L 446.625 415.4 L 446.625 391.025 L 460.313 391.025 L 460.313 415.4 L 484.5 415.4 L 484.5 429.087 L 460.313 429.087 L 460.313 453.15 L 446.625 453.15 L 446.625 453.15 Z " fill-rule="evenodd" fill="rgb(255,255,255)"/></g></svg>