<?xml version="1.0" standalone="no"?><!-- Generator: Gravit.io --><svg xmlns="http://www.w3.org/2000/svg" xmlns:xlink="http://www.w3.org/1999/xlink" style="isolation:isolate" viewBox="0 0 512 512" width="512" height="512"><defs><clipPath id="_clipPath_HvFW2Alz8dvICAnbwvKaRuiwSy4qiHnj"><rect width="512" height="512"/></clipPath></defs><g clip-path="url(#_clipPath_HvFW2Alz8dvICAnbwvKaRuiwSy4qiHnj)"><rect x="0" y="0" width="512" height="512" transform="matrix(1,0,0,1,0,0)" fill="rgb(97,145,189)"/><path d=" M 184.938 482.741 L 270.486 482.741 L 270.486 459.467 L 211.358 459.467 L 211.358 423.402 L 265.873 423.402 L 265.873 400.128 L 211.358 400.128 L 211.358 366.371 L 270.486 366.371 L 270.486 343.097 L 184.938 343.097 L 184.938 482.741 L 184.938 482.741 Z  M 384.759 444.789 C 384.759 416.902 382.872 410.822 345.34 401.806 C 321.227 395.935 320.808 395.516 320.808 379.58 C 320.808 367.419 323.953 363.645 341.776 363.645 C 353.937 363.645 367.566 365.322 379.098 367.838 L 382.033 345.613 C 368.195 342.468 353.517 341 341.356 341 C 305.921 341 294.389 353.581 294.389 378.951 C 294.389 408.515 299.002 415.015 332.76 422.564 C 357.921 428.015 358.34 429.273 358.34 444.789 C 358.34 458.209 355.195 462.192 336.114 462.192 C 322.276 462.192 309.695 459.676 296.695 455.692 L 292.083 476.45 C 301.308 480.853 319.76 484.837 335.695 484.837 C 377.001 484.837 384.759 471.208 384.759 444.789 L 384.759 444.789 L 384.759 444.789 Z  M 433.404 392.79 C 433.404 371.403 443.678 367.209 468.42 367.209 C 472.823 367.209 482.048 367.838 488.129 369.097 L 489.806 347.71 C 483.516 346.242 473.452 345.194 465.694 345.194 C 427.533 345.194 407.823 356.935 407.823 393.838 L 407.823 444.789 C 407.823 468.902 414.952 484.837 451.017 484.837 C 483.936 484.837 494 468.483 494 446.676 L 494 436.612 C 494 412.499 483.726 402.016 458.355 402.016 C 449.339 402.016 440.742 403.274 433.404 405.79 L 433.404 392.79 L 433.404 392.79 Z  M 454.371 424.031 C 463.597 424.031 468.42 427.177 468.42 437.241 L 468.42 447.515 C 468.42 458.209 464.226 462.821 451.017 462.821 C 437.807 462.821 433.404 459.047 433.404 447.515 L 433.404 428.435 C 439.275 425.919 446.823 424.031 454.371 424.031 L 454.371 424.031 L 454.371 424.031 Z " fill="rgb(255,255,255)"/></g></svg>