<?xml version="1.0" standalone="no"?><!-- Generator: Gravit.io --><svg xmlns="http://www.w3.org/2000/svg" xmlns:xlink="http://www.w3.org/1999/xlink" style="isolation:isolate" viewBox="0 0 512 512" width="512" height="512"><defs><clipPath id="_clipPath_iwl1oqmTfkgD8zxOkiVvuM1FaZnWrBH4"><rect width="512" height="512"/></clipPath></defs><g clip-path="url(#_clipPath_iwl1oqmTfkgD8zxOkiVvuM1FaZnWrBH4)"><path d=" M 512 28.229 L 512 483.657 C 512 499.314 499.314 511.886 483.771 511.886 L 353.257 511.886 L 353.257 313.714 L 419.771 313.714 L 429.714 236.457 L 353.143 236.457 L 353.143 187.086 C 353.143 164.686 359.314 149.486 391.429 149.486 L 432.343 149.486 L 432.343 80.343 C 425.257 79.429 401.029 77.257 372.686 77.257 C 313.714 77.257 273.257 113.257 273.257 179.429 L 273.257 236.457 L 206.514 236.457 L 206.514 313.714 L 273.257 313.714 L 273.257 512 L 28.229 512 C 12.686 512 0 499.314 0 483.771 L 0 28.229 C 0 12.686 12.686 0 28.229 0 L 483.657 0 C 499.314 0 512 12.686 512 28.229 Z " fill="rgb(66,103,178)"/></g></svg>