<?xml version="1.0" standalone="no"?><!-- Generator: Gravit.io --><svg xmlns="http://www.w3.org/2000/svg" xmlns:xlink="http://www.w3.org/1999/xlink" style="isolation:isolate" viewBox="0 0 512 512" width="512" height="512"><defs><clipPath id="_clipPath_rPalDINkFpRJchdPZQzem7rJZmnM5CdA"><rect width="512" height="512"/></clipPath></defs><g clip-path="url(#_clipPath_rPalDINkFpRJchdPZQzem7rJZmnM5CdA)"><rect x="0" y="0" width="512" height="512" transform="matrix(1,0,0,1,0,0)" fill="rgb(0,150,219)"/><path d=" M 371.737 319.489 C 349.248 341.684 316.539 355.722 278.81 355.693 C 236.718 355.716 201.28 347.57 177.888 336.055 L 177.888 277.556 L 177.888 131.824 C 203.555 113.594 245.19 102.363 278.81 102.431 C 319.655 102.463 351.733 117.886 373.415 141.3 C 395.066 164.85 406.887 196.132 406.992 232.495 C 406.865 267.927 394.228 297.109 371.737 319.489 Z  M 410.957 123.133 C 379.272 95.458 334.896 79.489 283.326 79.489 C 148.912 79.489 57.482 183.165 57.482 183.165 L 83.248 224.036 C 83.248 224.036 97.501 225.226 89.954 201.157 C 96.47 188.857 109.225 172.292 134.128 153.173 L 134.128 425.392 C 123.392 428.423 109.202 434.112 118.876 443.784 L 192.884 443.784 C 202.652 434.013 187.261 428.136 177.888 425.392 L 177.888 361.175 C 177.888 361.175 228.629 381.084 283.326 381.084 C 331.388 381.084 375.116 366.791 407.643 340.977 C 440.166 315.311 461.127 276.988 460.999 233.183 C 461.093 190.175 442.674 150.705 410.957 123.133 Z " fill-rule="evenodd" fill="rgb(255,255,255)"/></g></svg>