<?xml version="1.0" standalone="no"?><!-- Generator: Gravit.io --><svg xmlns="http://www.w3.org/2000/svg" xmlns:xlink="http://www.w3.org/1999/xlink" style="isolation:isolate" viewBox="0 0 512 512" width="512" height="512"><defs><clipPath id="_clipPath_7eL50iL5nSs3CEn6ulGZgcFXXEzHQbxt"><rect width="512" height="512"/></clipPath></defs><g clip-path="url(#_clipPath_7eL50iL5nSs3CEn6ulGZgcFXXEzHQbxt)"><rect x="0" y="0" width="512" height="512" transform="matrix(1,0,0,1,0,0)" fill="rgb(144,215,144)"/><path d=" M 258.258 358.34 L 166.242 305.215 C 161.777 302.637 160.233 296.874 162.811 292.408 L 265.936 113.79 C 268.514 109.325 274.277 107.781 278.742 110.359 L 370.758 163.484 C 375.223 166.062 376.767 171.825 374.189 176.29 L 271.064 354.908 C 268.486 359.374 262.723 360.918 258.258 358.34 Z  M 445.503 177.771 L 283.003 459.229 C 272.652 477.159 249.707 483.307 231.777 472.955 L 80.223 385.455 C 62.293 375.104 56.145 352.159 66.497 334.229 L 228.997 52.771 C 239.348 34.841 262.293 28.693 280.223 39.045 L 431.777 126.545 C 449.707 136.896 455.855 159.841 445.503 177.771 Z  M 252.871 436.42 L 410.683 163.08 C 411.973 160.848 411.2 157.966 408.968 156.677 L 265.532 73.865 C 263.3 72.576 260.418 73.348 259.129 75.58 L 101.317 348.92 C 100.027 351.152 100.8 354.034 103.032 355.323 L 246.468 438.135 C 248.7 439.424 251.582 438.652 252.871 436.42 Z  M 224.413 385.71 L 227.538 380.297 C 230.117 375.831 228.572 370.068 224.107 367.49 L 175.393 339.365 C 170.928 336.787 165.165 338.331 162.587 342.797 L 159.462 348.21 C 156.883 352.675 158.428 358.438 162.893 361.016 L 211.607 389.141 C 216.072 391.719 221.835 390.175 224.413 385.71 Z " fill="rgb(255,255,255)"/></g></svg>