<?xml version="1.0" standalone="no"?><!-- Generator: Gravit.io --><svg xmlns="http://www.w3.org/2000/svg" xmlns:xlink="http://www.w3.org/1999/xlink" style="isolation:isolate" viewBox="0 0 512 512" width="512" height="512"><defs><clipPath id="_clipPath_vXUbs7iF4sIdBGvscxV5WABbLHQBO0Iz"><rect width="512" height="512"/></clipPath></defs><g clip-path="url(#_clipPath_vXUbs7iF4sIdBGvscxV5WABbLHQBO0Iz)"><clipPath id="_clipPath_INQnIHgXKZOBGgW47WHL4UqkKV6YplSP"><rect x="0" y="0" width="512" height="512" transform="matrix(1,0,0,1,0,0)" fill="rgb(255,255,255)"/></clipPath><g clip-path="url(#_clipPath_INQnIHgXKZOBGgW47WHL4UqkKV6YplSP)"><g id="Group"><rect x="0" y="0" width="512" height="512" transform="matrix(1,0,0,1,0,0)" fill="rgb(142,200,225)"/><path d=" M 429.155 72.997 L 355.156 55.927 C 338.196 52.013 320.916 60.783 314.062 76.777 L 279.907 156.464 C 273.64 171.089 277.863 188.34 290.178 198.415 L 321.597 224.122 C 299.191 265.245 265.245 299.19 224.122 321.597 L 198.415 290.179 C 188.34 277.864 171.089 273.641 156.464 279.908 L 76.777 314.062 C 60.783 320.917 52.013 338.199 55.927 355.155 L 72.998 429.156 C 76.78 445.55 91.174 457 107.998 457 C 300.241 457 457 301.328 457 107.998 C 457 91.173 445.55 76.78 429.155 72.997 Z  M 109.403 419.309 L 92.977 348.12 L 170.088 315.072 L 213.834 368.536 C 291.411 332.142 332.069 291.563 368.538 213.833 L 315.071 170.088 L 348.12 92.977 L 419.309 109.403 C 418.566 280.243 280.266 418.562 109.403 419.309 L 109.403 419.309 Z " fill="rgb(255,255,255)"/></g></g></g></svg>