<?xml version="1.0" standalone="no"?><!-- Generator: Gravit.io --><svg xmlns="http://www.w3.org/2000/svg" xmlns:xlink="http://www.w3.org/1999/xlink" style="isolation:isolate" viewBox="0 0 512 512" width="512" height="512"><defs><clipPath id="_clipPath_UTOZLQ2bQ0GIi1QH8Pt80E3fAQRPmxKx"><rect width="512" height="512"/></clipPath></defs><g clip-path="url(#_clipPath_UTOZLQ2bQ0GIi1QH8Pt80E3fAQRPmxKx)"><rect x="0" y="0" width="512" height="512" transform="matrix(1,0,0,1,0,0)" fill="rgb(132,79,168)"/><path d=" M 256 157.881 C 367.008 157.881 452.368 204.641 452.368 256 C 452.368 307.359 366.943 354.119 256 354.119 C 144.992 354.119 59.632 307.359 59.632 256 C 59.632 204.641 145.057 157.881 256 157.881 Z  M 256 147 C 141.56 147 48.751 195.768 48.751 256 C 48.751 316.232 141.56 365 256 365 C 370.44 365 463.249 316.232 463.249 256 C 463.249 195.768 370.44 147 256 147 Z  M 190.069 247.257 C 184.952 273.487 166.883 270.766 144.668 270.766 L 153.541 225.042 C 178.152 225.042 194.862 222.387 190.069 247.257 Z  M 111.832 317.074 L 135.601 317.074 L 141.236 288.059 C 167.854 288.059 184.37 290.002 199.654 275.689 C 216.558 260.145 220.962 232.49 208.916 218.63 C 202.633 211.377 192.53 207.815 178.8 207.815 L 133.011 207.815 L 111.832 317.074 Z  M 232.102 178.735 L 255.741 178.735 L 250.106 207.75 C 270.507 207.75 289.419 206.26 298.551 214.68 C 308.136 223.488 303.538 234.757 293.175 287.929 L 269.212 287.929 C 279.186 236.506 281.064 232.231 277.437 228.345 C 273.94 224.589 265.974 225.366 246.739 225.366 L 234.563 287.929 L 210.923 287.929 L 232.102 178.735 L 232.102 178.735 Z  M 375.816 247.257 C 370.635 273.875 352.047 270.766 330.415 270.766 L 339.288 225.042 C 364.029 225.042 380.608 222.387 375.816 247.257 L 375.816 247.257 Z  M 297.579 317.074 L 321.413 317.074 L 327.048 288.059 C 355.026 288.059 370.505 289.678 385.466 275.689 C 402.37 260.145 406.774 232.49 394.727 218.63 C 388.445 211.377 378.342 207.815 364.611 207.815 L 318.822 207.815 L 297.579 317.074 L 297.579 317.074 Z " fill="rgb(255,255,255)"/></g></svg>