<?xml version="1.0" encoding="utf-8"?>
<!-- Generator: Adobe Illustrator 19.2.1, SVG Export Plug-In . SVG Version: 6.00 Build 0)  -->
<svg version="1.1"
	 xmlns:cc="http://creativecommons.org/ns#" xmlns:dc="http://purl.org/dc/elements/1.1/" xmlns:inkscape="http://www.inkscape.org/namespaces/inkscape" xmlns:rdf="http://www.w3.org/1999/02/22-rdf-syntax-ns#" xmlns:sodipodi="http://sodipodi.sourceforge.net/DTD/sodipodi-0.dtd" xmlns:svg="http://www.w3.org/2000/svg"
	 xmlns="http://www.w3.org/2000/svg" xmlns:xlink="http://www.w3.org/1999/xlink" x="0px" y="0px" viewBox="0 0 452 638"
	 style="enable-background:new 0 0 452 638;" xml:space="preserve">
<style type="text/css">
	.st0{fill:#25A794;}
	.st1{fill:#73CAC3;}
	.st2{fill:#FFFFFF;}
	.st3{fill:#FAE9E9;}
</style>
<g id="g2997">
	<g id="g3003" transform="translate(619,210.0801)">
		<g id="path3005">
			<path inkscape:connector-curvature="0" class="st0" d="M-171.6-78.8c0,0-26.9,305.5-41.7,453.1c-58.9,17.2-176.6,51.8-180.3,51.8
				c-2.4,0-120.1-34.4-180.3-51.8c-13.4-147.6-40.6-453.1-40.6-453.1H-171.6z M-212.5-42.7l-33,388.5l-148.4,42.4l-0.6-430.8
				C-394.4-42.7-212.5-42.7-212.5-42.7z"/>
		</g>
	</g>
	<g id="g3007" transform="translate(603.2402,196.1699)">
		<g id="path3009">
			<path inkscape:connector-curvature="0" class="st1" d="M-196.2-29.1L-229,361.4l-150.2,41.9V-29.1H-196.2z"/>
		</g>
	</g>
	<g id="g3011" transform="translate(585.6699,173.3799)">
		<g id="path3013">
			<path inkscape:connector-curvature="0" class="st2" d="M-223.8,52h-276l25.2,282.1l62,17.7l-17.7-133l99.1,0.8l12.9,135.1
				l67.2-18.8L-275,219.5h38.2C-236.9,219.7-223.8,54.2-223.8,52z M-282.9,161.4h-151.9l-3-56.1l160.7,0.6L-282.9,161.4z"/>
		</g>
	</g>
	<g id="g3015" transform="translate(569.2793,248.5298)">
		<g id="path3017">
			<path inkscape:connector-curvature="0" d="M-249.6-216.1c0,0,21.8-3.5,23.7,14.3c2.5,22-23.7,18.8-23.7,18.8V-216.1z M-277-240
				l0.5,81.1c0,0,87.3,14.3,78.8-48.4C-203.9-252.9-277-240-277-240 M-381.2-240.5h-28l25.5,82h24.5l14-40l14,40h24.5l26.4-82.7h-29
				l-10.8,40l-12.9-40.6h-22.8l-12.9,39.5C-369.4-202.1-381.2-240.5-381.2-240.5z M-459.5-217.2c0,0,23.1-3.7,22.5,8
				c-0.5,10.2-22.5,7.5-22.5,7.5V-217.2z M-485.8-241c-1-2.9,0,82,0,82h26.9v-23.9c0,0,2.9-1.3,20.7,23.9c0.2,0.2,31.2,0,31.2,0
				l-19.3-28.5c0,0,25.5-7.2,12.9-37.9C-422.8-248.4-484.9-238.1-485.8-241"/>
			<path class="st3" d="M-256.2-156.6c-11.1,0-19.7-1.3-20.5-1.4l-0.8-0.2l-0.5-82.5l0.8-0.2c1.8-0.3,43.2-7.3,66.1,9.4
				c8,5.9,12.7,14,14.2,24c2.1,15.3-1.3,27.4-10.2,36C-219.5-159.3-240.6-156.6-256.2-156.6z M-275.6-159.7
				c6.1,0.8,47.9,5.9,67.4-13.1c8.4-8.3,11.6-19.7,9.6-34.4c-1.3-9.7-5.9-17.4-13.4-22.9c-20.7-15.1-58.3-10-64-9.2L-275.6-159.7z
				 M-306.5-157.5h-25.6l-13.2-38.2l-13.2,38.2h-25.6l-26-83.9h29.9l11.3,36.5l12.3-37.4h24l12.3,38.2l10.4-37.7h30.9L-306.5-157.5z
				 M-330.9-159.3h23.1l26-80.9h-27.1l-11.5,42.4l-13.7-42.8h-21.5l-13.7,41.6l-12.4-40.6h-26.1l24.8,80.4h23.1l14.7-41.9
				L-330.9-159.3z M-429.6-158c-9.1,0-9.2-0.2-9.4-0.5c-12.3-17.2-17.2-21.8-19.1-23.1v23.4h-28.7v-0.8c0-0.2-0.3-20.7-0.3-41.1
				c-0.3-41.9,0-41.9,1-42l0.8-0.2l0.2,0.5c1.1,0.3,5.9,0.2,10.5,0c19.3-0.6,55.1-1.8,62.3,15.8c4.3,10.5,4.6,19.6,1.1,26.6
				c-3.8,7.6-10.8,11-13.4,12.1l19.6,29h-1.6C-417.8-158-424.8-158-429.6-158z M-437.7-159.7c2.4,0.2,17.8,0,28.8,0l-18.8-28.2
				l1.1-0.3c0.2,0,9.4-2.9,13.7-11.5c3.3-6.7,3-15.3-1.1-25.3c-6.7-16.4-41.7-15.3-60.5-14.7c-6.1,0.2-9.1,0.3-10.7,0
				c-0.5,7.3-0.2,50.3,0.2,80h25.2v-23.6l0.5-0.2C-456.4-185.1-444.7-169.5-437.7-159.7z M-485-241.4L-485-241.4
				C-485-241.3-485-241.4-485-241.4z M-246.3-181.9c-1.8,0-3.2-0.2-3.3-0.2l-0.8-0.2v-34.7l0.8-0.2c0.5,0,11.5-1.6,18.8,4
				c3.5,2.5,5.4,6.4,6.1,11.1c0.6,6.1-0.6,10.8-4.1,14.3C-233.9-182.5-241.8-181.9-246.3-181.9z M-248.5-183.6
				c3,0.2,12.9,0.3,18.5-5.1c3-3,4.3-7.3,3.7-12.7c-0.5-4.3-2.2-7.6-5.4-10c-5.7-4.3-14.2-4-16.7-3.7V-183.6z M-453.5-200.2
				c-3.3,0-5.7-0.3-6.1-0.3l-0.8-0.2v-17l0.8-0.2c0.6-0.2,15.3-2.2,21.2,3c1.8,1.4,2.5,3.7,2.4,6.1c-0.2,1.9-1,3.8-2.4,5.1
				C-442-201-448.6-200.2-453.5-200.2z M-458.6-202.4c3.2,0.3,14.3,1,18.8-3c1.1-1,1.8-2.2,1.9-3.8c0.2-1.9-0.5-3.5-1.8-4.6
				c-4.6-4.1-15.9-3-18.8-2.5v14L-458.6-202.4L-458.6-202.4z"/>
		</g>
	</g>
</g>
</svg>
