<?xml version="1.0" standalone="no"?><!-- Generator: Gravit.io --><svg xmlns="http://www.w3.org/2000/svg" xmlns:xlink="http://www.w3.org/1999/xlink" style="isolation:isolate" viewBox="0 0 512 512" width="512" height="512"><defs><clipPath id="_clipPath_bLTcjyzevZuFfBg3I190aINaaRmdYvoG"><rect width="512" height="512"/></clipPath></defs><g clip-path="url(#_clipPath_bLTcjyzevZuFfBg3I190aINaaRmdYvoG)"><rect x="0" y="0" width="512" height="512" transform="matrix(1,0,0,1,0,0)" fill="rgb(93,183,159)"/><path d=" M 450.416 383.476 C 446.737 397.904 433.743 408 418.854 408 C 396.973 408 373.722 401.221 349.572 387.823 C 315.209 395.712 275.506 393.168 242.385 378.705 C 270.304 376.725 296.916 370.333 321.324 359.227 C 332.4 358.399 343.496 356.296 354.324 352.717 C 368.917 362.105 393.521 375.429 418.854 375.429 C 397.14 363.584 389.527 348.993 387.532 335.731 C 404.797 322.941 418.854 303.714 418.854 280.675 C 418.854 273.553 417.237 266.061 414.077 258.644 C 419.101 241.048 419.95 224.583 417.595 208.472 C 439.421 229.141 451.426 255.38 451.426 280.675 C 451.426 303.674 442.664 324.814 427.692 342.506 C 429.492 343.889 431.712 345.339 434.452 346.834 C 447.522 353.964 454.095 369.049 450.416 383.476 L 450.416 383.476 Z  M 223.43 136.571 C 140.01 136.571 93.146 186.024 93.146 225.403 C 93.146 251.321 110.014 272.951 130.732 287.34 C 128.339 302.26 119.203 318.676 93.146 332 C 123.546 332 153.07 317.011 170.584 306.45 C 187.901 311.815 205.79 314.234 223.43 314.234 C 306.892 314.234 353.714 264.805 353.714 225.403 C 353.714 186.027 306.854 136.571 223.43 136.571 Z  M 223.43 104 C 325.345 104 386.286 167.803 386.286 225.403 C 386.286 240.837 381.871 256.884 373.518 271.811 C 365.458 286.214 354.152 299.153 339.913 310.268 C 325.26 321.707 308.157 330.656 289.079 336.866 C 268.82 343.461 246.733 346.804 223.43 346.804 C 206.84 346.804 190.628 344.981 175.053 341.373 C 146.283 356.776 118.783 364.571 93.146 364.571 C 78.095 364.571 65.004 354.259 61.48 339.626 C 57.956 324.994 64.916 309.852 78.316 303 C 83.516 300.341 87.357 297.75 90.204 295.336 C 85.187 290.024 80.737 284.395 76.881 278.478 C 66.061 261.873 60.575 244.016 60.575 225.403 C 60.575 167.961 121.309 104 223.43 104 Z " fill="rgb(255,255,255)"/></g></svg>