<?xml version="1.0" standalone="no"?><!-- Generator: Gravit.io --><svg xmlns="http://www.w3.org/2000/svg" xmlns:xlink="http://www.w3.org/1999/xlink" style="isolation:isolate" viewBox="0 0 512 512" width="512" height="512"><defs><clipPath id="_clipPath_2Upxb87W3sep3PhqDfAMztdb2bWmcwCc"><rect width="512" height="512"/></clipPath></defs><g clip-path="url(#_clipPath_2Upxb87W3sep3PhqDfAMztdb2bWmcwCc)"><rect x="0" y="0" width="512" height="512" transform="matrix(1,0,0,1,0,0)" fill="rgb(112,128,162)"/><path d=" M 121.945 150.689 L 222.558 251.302 C 224.81 253.554 224.81 257.204 222.558 259.456 L 121.945 360.069 C 119.694 362.32 116.043 362.32 113.791 360.069 L 104.279 350.557 C 102.027 348.305 102.027 344.655 104.279 342.403 L 191.096 255.379 L 104.279 168.355 C 102.027 166.103 102.027 162.453 104.279 160.201 L 113.791 150.688 C 116.043 148.437 119.693 148.437 121.945 150.689 Z  M 409.41 357.235 L 409.41 343.782 C 409.41 340.598 406.828 338.017 403.644 338.017 L 246.056 338.017 C 242.872 338.017 240.291 340.598 240.291 343.782 L 240.291 357.235 C 240.291 360.419 242.872 363 246.056 363 L 403.644 363 C 406.828 363 409.41 360.419 409.41 357.235 Z " fill="rgb(255,255,255)"/></g></svg>